:version 1.10
:name ASF
:units
  mass 1
  length 1
  angle deg
:documentation
  ASF file generated by Kaydara
:root
  axis xyz
  order  tx ty tz rx ry rz
  position 0 0 0
  orientation 0 0 0
:bonedata
  begin
    id 1
    name RightUpLegDummy
    direction -1 2.30186e-007 8.31532e-007
    length 4.04083
    axis 0 0 0 xyz
  end
  begin
    id 2
    name RightUpLeg
    direction -0.000919234 -0.999985 0.00544864
    length 17.4221
    axis -3.80308 -0.00076134 -0.0523649 xyz
    dof rx ry rz
  end
  begin
    id 3
    name RightLeg
    direction -0.000919271 -0.999984 -0.00555045
    length 17.1239
    axis 4.00314 0.0181274 -0.183583 xyz
    dof rx ry rz
  end
  begin
    id 4
    name RightFoot
    direction -2.57843e-005 -4.04509e-007 1
    length 6.72091
    axis 8.18909e-005 -0.122003 -0.403008 xyz
    dof rx ry rz
  end
  begin
    id 5
    name RightToes
    direction 0.00116825 -0.014069 0.9999
    length 3.85082
    axis 0.000514414 0.540638 -0.356797 xyz
    dof rx ry rz
  end
  begin
    id 6
    name SpineDummy
    direction 0.0168869 0.966876 -0.254689
    length 6.99894
    axis 0 0 0 xyz
  end
  begin
    id 7
    name Spine
    direction -0.0132008 0.999903 0.00446247
    length 11.1999
    axis -0.00148109 0.00725429 0.756411 xyz
    dof rx ry rz
  end
  begin
    id 8
    name Spine1
    direction 0 0 0
    length 0
    axis -0.000934958 0.0245693 1.46543 xyz
    dof rx ry rz
  end
  begin
    id 9
    name HEadDummy
    direction -0.0255732 0.999672 0.00128215
    length 3.43865
    axis -0.000934958 0.0245693 1.46543 xyz
  end
  begin
    id 10
    name HEad
    direction -0.0472656 0.980052 0.19304
    length 5.12695
    axis -0.000934954 0.0245693 1.46543 xyz
    dof rx ry rz
  end
  begin
    id 11
    name LeftShoulder1Dummy
    direction 0.953098 0.301717 -0.023914
    length 3.68488
    axis -0.000934958 0.0245693 1.46543 xyz
  end
  begin
    id 12
    name LeftShoulder1
    direction 0.962466 0.271167 0.0112566
    length 3.13809
    axis -0.000934958 0.0245693 1.46543 xyz
    dof rx ry rz
  end
  begin
    id 13
    name LeftArm
    direction 0.999943 0.00455037 -0.00961766
    length 11.3419
    axis -23.1648 0.685459 1.22814 xyz
    dof rx ry rz
  end
  begin
    id 14
    name LeftForeArm
    direction 0.999332 0.0131969 0.0340885
    length 8.70632
    axis -9.90633 0.618216 0.0826942 xyz
    dof rx ry rz
  end
  begin
    id 15
    name LeftHand
    direction 0.994373 -0.0366703 0.0993905
    length 5.32135
    axis 0.00675269 0.680415 0.445699 xyz
    dof rx ry rz
  end
  begin
    id 16
    name RightShoulderDummy
    direction -0.967298 0.252589 -0.0230903
    length 3.68488
    axis -0.000934958 0.0245693 1.46543 xyz
  end
  begin
    id 17
    name RightShoulder
    direction -0.975062 0.221602 0.0120823
    length 3.13809
    axis 0.216257 0.0246515 1.45863 xyz
    dof rx ry rz
  end
  begin
    id 18
    name RightArm
    direction -0.99886 -0.00851186 -0.0469687
    length 10.3947
    axis -23.196 0.23503 -0.532632 xyz
    dof rx ry rz
  end
  begin
    id 19
    name RightForeArm
    direction -0.99909 0.00114866 0.0426317
    length 8.68355
    axis -9.91764 -0.134943 0.610517 xyz
    dof rx ry rz
  end
  begin
    id 20
    name RightHand
    direction -0.992888 -0.0489538 0.10852
    length 5.28593
    axis -0.00275396 -0.197403 0.246414 xyz
    dof rx ry rz
  end
  begin
    id 21
    name LeftUpLegDummy
    direction 1 -2.30186e-007 -8.31532e-007
    length 4.04083
    axis 0 0 0 xyz
  end
  begin
    id 22
    name LeftUpLeg
    direction -0.000920097 -1 2.79241e-006
    length 17.4221
    axis -3.48782 0.00143434 -0.0532288 xyz
    dof rx ry rz
  end
  begin
    id 23
    name LeftLeg
    direction -0.000920097 -1 2.7912e-006
    length 17.1239
    axis 3.68162 -0.00806512 -0.0529896 xyz
    dof rx ry rz
  end
  begin
    id 24
    name LeftFoot
    direction -2.57845e-005 -3.987e-007 1
    length 6.72091
    axis 3.02372e-005 -0.00147829 -0.214229 xyz
    dof rx ry rz
  end
  begin
    id 25
    name LeftToes
    direction 0.00813577 -0.00488255 0.999955
    length 3.85048
    axis 3.89895e-005 -0.0014783 -0.214229 xyz
    dof rx ry rz
  end
:hierarchy
  begin
    root RightUpLegDummy SpineDummy LeftUpLegDummy
    RightUpLegDummy RightUpLeg
    RightUpLeg RightLeg
    RightLeg RightFoot
    RightFoot RightToes
    SpineDummy Spine
    Spine Spine1
    Spine1 HEadDummy LeftShoulder1Dummy RightShoulderDummy
    HEadDummy HEad
    LeftShoulder1Dummy LeftShoulder1
    LeftShoulder1 LeftArm
    LeftArm LeftForeArm
    LeftForeArm LeftHand
    RightShoulderDummy RightShoulder
    RightShoulder RightArm
    RightArm RightForeArm
    RightForeArm RightHand
    LeftUpLegDummy LeftUpLeg
    LeftUpLeg LeftLeg
    LeftLeg LeftFoot
    LeftFoot LeftToes
  end

:SAMPLES-PER-SECOND 30
:FULLY-SPECIFIED
:DEGREES
74
root  -17.8192 34.6178 33.6407 -169.661 4.23328 -179.535
RightUpLeg  -9.03701 -16.1806 0.689448
RightLeg  7.21747 -2.7437 -0.168023
RightFoot  2.99288 0.00671169 0.00334354
RightToes  -26.0701 -0.116709 -0.223746
Spine  -2.31367 -0.100737 0.382808
Spine1  -4.69948 -0.102576 1.36705
HEad  -55.5812 -5.05413 6.48489
LeftShoulder1  -1.94126e-019 -3.10601e-018 -2.51263e-017
LeftArm  -12.1319 24.7212 -82.4884
LeftForeArm  30.5733 -19.1491 -3.12556
LeftHand  -0.394377 -1.26484 7.0355
RightShoulder  -4.96962e-017 0 -2.36833e-017
RightArm  -28.8626 -22.6303 75.838
RightForeArm  58.3598 13.5054 1.30047
RightHand  -0.388067 -1.37024 -10.914
LeftUpLeg  -9.04699 1.3263 0.0937556
LeftLeg  11.4326 17.3639 2.32451
LeftFoot  -1.09968 -0.00362852 -0.216552
LeftToes  -13.1186 1.31378e-006 1.14341e-007
75
root  -17.9678 34.5908 33.5717 -169.695 4.00751 -179.513
RightUpLeg  -9.56623 -15.7512 0.427135
RightLeg  8.65992 -3.38997 -0.293569
RightFoot  2.28978 0.00711112 0.0159792
RightToes  -26.2673 -0.117418 -0.224574
Spine  -2.23522 -0.10304 0.412138
Spine1  -4.54376 -0.107798 1.42125
HEad  -55.2761 -5.43476 6.68709
LeftShoulder1  -1.94126e-019 -3.10601e-018 -2.51263e-017
LeftArm  -12.297 24.7034 -82.6516
LeftForeArm  30.5873 -19.1332 -3.12067
LeftHand  -0.393024 -1.2447 7.02738
RightShoulder  -4.96962e-017 0 -2.36833e-017
RightArm  -29.0439 -22.6068 75.7422
RightForeArm  58.4841 13.4069 1.31309
RightHand  -0.385548 -1.40744 -10.9766
LeftUpLeg  -9.30888 0.770117 -0.102378
LeftLeg  12.2828 17.6088 2.61817
LeftFoot  -1.96554 -0.0113636 -0.500874
LeftToes  -12.5673 1.31378e-006 1.14341e-007
76
root  -18.1427 34.5598 33.4906 -169.656 3.88919 -179.69
RightUpLeg  -10.6644 -14.9937 -0.0621475
RightLeg  11.0762 -4.26545 -0.551525
RightFoot  1.23039 0.00486504 0.0677884
RightToes  -26.3066 -0.117348 -0.223854
Spine  -2.16486 -0.0724454 0.347392
Spine1  -4.40304 -0.0526232 1.29271
HEad  -55.0598 -5.92984 6.96072
LeftShoulder1  -1.94126e-019 -3.10601e-018 -2.51263e-017
LeftArm  -12.4047 24.6573 -82.6873
LeftForeArm  30.6512 -19.014 -3.1051
LeftHand  -0.401413 -1.30156 7.11813
RightShoulder  -4.96962e-017 0 -2.36833e-017
RightArm  -29.6518 -22.5956 75.7927
RightForeArm  58.7141 13.2974 1.32608
RightHand  -0.385601 -1.30242 -10.9691
LeftUpLeg  -9.45781 0.153327 -0.549089
LeftLeg  12.7983 17.9911 2.83576
LeftFoot  -2.64644 -0.0208118 -0.739416
LeftToes  -12.171 1.31378e-006 1.14341e-007
77
root  -18.3389 34.5117 33.4255 -169.51 3.95868 179.916
RightUpLeg  -12.7571 -13.4947 -0.788809
RightLeg  15.145 -5.67661 -1.14809
RightFoot  -0.231028 -0.00123776 0.198221
RightToes  -25.8355 -0.11632 -0.222006
Spine  -2.10992 -0.02439 0.171474
Spine1  -4.29121 0.0348868 0.951269
HEad  -54.8616 -6.45371 7.39231
LeftShoulder1  -1.94126e-019 -3.10601e-018 -2.51263e-017
LeftArm  -12.5193 24.619 -82.5357
LeftForeArm  30.7012 -18.9733 -3.10514
LeftHand  -0.410358 -1.30957 7.26559
RightShoulder  -4.96962e-017 0 -2.36833e-017
RightArm  -29.8108 -22.5725 75.9883
RightForeArm  58.6105 13.3586 1.31865
RightHand  -0.385353 -1.38068 -10.964
LeftUpLeg  -9.64328 -0.16635 -1.26321
LeftLeg  13.0978 18.2121 2.9652
LeftFoot  -3.25448 -0.031616 -0.951316
LeftToes  -11.6073 1.31378e-006 1.14341e-007
78
root  -18.555 34.4241 33.3564 -169.443 4.3074 179.184
RightUpLeg  -15.7723 -11.79 -1.91688
RightLeg  21.0903 -6.9729 -2.18093
RightFoot  -1.86438 -0.00294073 0.431528
RightToes  -25.3039 -0.112956 -0.218039
Spine  -2.00689 0.0346525 -0.201917
Spine1  -4.08335 0.138169 0.222158
HEad  -54.4477 -6.80197 7.46016
LeftShoulder1  -1.94126e-019 -3.10601e-018 -2.51263e-017
LeftArm  -12.4204 24.6534 -82.0027
LeftForeArm  30.5513 -19.2285 -3.14902
LeftHand  -0.400362 -1.24097 7.15982
RightShoulder  -4.96962e-017 0 -2.36833e-017
RightArm  -29.4991 -22.4806 76.4445
RightForeArm  58.0725 13.6331 1.28516
RightHand  -0.389558 -1.27675 -10.8356
LeftUpLeg  -9.63534 -0.259774 -2.36298
LeftLeg  13.1646 18.4202 3.01949
LeftFoot  -3.69529 -0.0409896 -1.10904
LeftToes  -11.72 1.31378e-006 1.14341e-007
79
root  -18.7441 34.3192 33.2684 -169.729 4.72389 178.65
RightUpLeg  -19.2018 -11.0016 -2.78408
RightLeg  28.291 -7.85264 -3.58663
RightFoot  -1.91003 -0.0020994 0.495189
RightToes  -27.5169 -0.127201 -0.234343
Spine  -1.72837 0.0420853 -0.528259
Spine1  -3.53222 0.145623 -0.425278
HEad  -53.9551 -6.83359 7.49078
LeftShoulder1  -1.94126e-019 -3.10601e-018 -2.51263e-017
LeftArm  -12.1348 24.4956 -81.3887
LeftForeArm  30.1583 -19.0673 -3.10762
LeftHand  -0.405914 -1.24833 7.24978
RightShoulder  -4.96962e-017 0 -2.36833e-017
RightArm  -29.2262 -22.0283 76.9446
RightForeArm  57.7402 13.9698 1.24071
RightHand  -0.390819 -1.22086 -10.7992
LeftUpLeg  -9.36211 0.124473 -3.20963
LeftLeg  13.5051 18.1658 3.08812
LeftFoot  -4.43405 -0.057939 -1.33495
LeftToes  -11.5658 1.31378e-006 1.14341e-007
80
root  -18.8958 34.2453 33.1735 -169.946 5.26234 178.303
RightUpLeg  -23.5962 -10.6326 -3.29467
RightLeg  36.7458 -8.37907 -5.4342
RightFoot  0.67477 0.00236546 0.0928407
RightToes  -31.5805 -0.154955 -0.262799
Spine  -1.42659 -0.0469718 -0.718434
Spine1  -2.93698 -0.0287681 -0.804195
HEad  -53.7942 -6.57914 7.76295
LeftShoulder1  -1.94126e-019 -3.10601e-018 -2.51263e-017
LeftArm  -11.9627 24.1782 -80.9252
LeftForeArm  29.9484 -17.9185 -2.91297
LeftHand  -0.432482 -1.35472 7.60202
RightShoulder  -4.96962e-017 0 -2.36833e-017
RightArm  -29.5181 -21.137 77.3702
RightForeArm  57.8534 14.1027 1.22018
RightHand  -0.385708 -1.20697 -10.9564
LeftUpLeg  -9.01745 0.89663 -3.84539
LeftLeg  13.5533 17.8013 3.04338
LeftFoot  -4.97472 -0.0711849 -1.47702
LeftToes  -11.4292 1.31378e-006 1.14341e-007
81
root  -18.974 34.216 33.0424 -169.729 5.894 178.325
RightUpLeg  -28.4791 -10.8367 -2.84371
RightLeg  44.383 -8.93408 -7.63623
RightFoot  3.77948 0.0381432 -0.569435
RightToes  -29.4338 -0.140042 -0.248012
Spine  -1.24077 -0.187762 -0.739497
Spine1  -2.56853 -0.302387 -0.848411
HEad  -54.3504 -6.03905 8.02343
LeftShoulder1  -1.94126e-019 -3.10601e-018 -2.51263e-017
LeftArm  -12.8231 23.9769 -80.6366
LeftForeArm  31.2868 -16.5463 -2.71763
LeftHand  -0.399374 -1.31693 7.06767
RightShoulder  -4.96962e-017 0 -2.36833e-017
RightArm  -29.7827 -20.3683 77.7683
RightForeArm  57.4054 14.3542 1.18995
RightHand  -0.38278 -1.23831 -11.0429
LeftUpLeg  -8.81871 2.04989 -4.02519
LeftLeg  13.1719 17.2513 2.83631
LeftFoot  -5.28931 -0.0776495 -1.51938
LeftToes  -11.248 1.31378e-006 1.14341e-007
82
root  -18.9816 34.2236 32.824 -169.525 6.46353 178.67
RightUpLeg  -32.305 -11.6435 -1.59114
RightLeg  49.3179 -9.72962 -9.8411
RightFoot  4.21338 0.0519076 -0.811069
RightToes  -23.1926 -0.0999621 -0.201983
Spine  -1.02492 -0.323366 -0.623788
Spine1  -2.13764 -0.569738 -0.621779
HEad  -55.263 -5.46875 8.08685
LeftShoulder1  -1.94126e-019 -3.10601e-018 -2.51263e-017
LeftArm  -13.1879 23.7276 -80.4369
LeftForeArm  31.7319 -14.6824 -2.45745
LeftHand  -0.442335 -1.46527 7.65517
RightShoulder  -4.96962e-017 0 -2.36833e-017
RightArm  -29.2656 -20.0851 78.1171
RightForeArm  56.2406 15.0792 1.11348
RightHand  -0.388353 -1.21252 -10.8805
LeftUpLeg  -8.13097 3.06216 -3.78073
LeftLeg  12.1608 16.8856 2.47774
LeftFoot  -5.20298 -0.0732347 -1.45016
LeftToes  -11.6436 1.31378e-006 1.14341e-007
83
root  -18.9492 34.256 32.515 -169.074 6.78502 179.252
RightUpLeg  -35.2834 -12.991 0.231623
RightLeg  50.7689 -9.06598 -9.66216
RightFoot  2.92786 0.0295007 -0.471231
RightToes  -22.4153 -0.0953284 -0.195953
Spine  -0.961024 -0.476185 -0.409805
Spine1  -2.00739 -0.880656 -0.197655
HEad  -55.8915 -4.95895 8.11565
LeftShoulder1  -1.94126e-019 -3.10601e-018 -2.51263e-017
LeftArm  -13.2018 23.8314 -80.1812
LeftForeArm  32.1003 -13.3786 -2.27872
LeftHand  -0.456583 -1.43598 7.9283
RightShoulder  -4.96962e-017 0 -2.36833e-017
RightArm  -28.2705 -20.4276 78.2847
RightForeArm  55.3762 15.8524 1.05985
RightHand  -0.394804 -1.0771 -10.708
LeftUpLeg  -7.24457 3.36796 -3.26019
LeftLeg  10.6109 17.0424 2.03843
LeftFoot  -4.94747 -0.0666681 -1.38153
LeftToes  -11.4475 1.31378e-006 1.14341e-007
84
root  -18.8694 34.2681 32.1226 -168.524 7.04839 179.951
RightUpLeg  -37.5447 -13.8664 2.31373
RightLeg  49.3821 -7.84471 -8.00273
RightFoot  2.08779 0.0150992 -0.2179
RightToes  -22.9263 -0.0983653 -0.199924
Spine  -0.95365 -0.629336 -0.129203
Spine1  -1.98665 -1.2023 0.368489
HEad  -56.3915 -4.28799 8.21193
LeftShoulder1  -1.94126e-019 -3.10601e-018 -2.51263e-017
LeftArm  -13.8229 24.226 -80.0321
LeftForeArm  32.7412 -12.5663 -2.16132
LeftHand  -0.449656 -1.37359 7.87751
RightShoulder  -4.96962e-017 0 -2.36833e-017
RightArm  -27.2911 -21.0753 78.2704
RightForeArm  54.6248 16.5683 1.06359
RightHand  -0.402331 -0.97041 -10.5158
LeftUpLeg  -6.25385 4.20094 -2.55054
LeftLeg  8.94975 16.6813 1.51485
LeftFoot  -4.74745 -0.0598897 -1.28313
LeftToes  -11.4116 1.31378e-006 1.14341e-007
85
root  -18.7455 34.231 31.6632 -167.868 7.3347 -179.417
RightUpLeg  -39.032 -14.2394 4.33332
RightLeg  45.4821 -6.4407 -5.76001
RightFoot  1.63956 0.00909829 -0.0815267
RightToes  -25.269 -0.112736 -0.217777
Spine  -0.986663 -0.768307 0.166039
Spine1  -2.04571 -1.50291 0.970085
HEad  -57.0214 -3.47288 8.33239
LeftShoulder1  -1.94126e-019 -3.10601e-018 -2.51263e-017
LeftArm  -14.1571 24.7263 -79.8413
LeftForeArm  33.1012 -12.2166 -2.11163
LeftHand  -0.427317 -1.38632 7.48044
RightShoulder  -4.96962e-017 0 -2.36833e-017
RightArm  -26.7689 -21.8201 78.0924
RightForeArm  54.253 17.0107 1.10138
RightHand  -0.408836 -0.844632 -10.4041
LeftUpLeg  -5.39204 5.26958 -1.83944
LeftLeg  7.60355 16.0738 1.08637
LeftFoot  -4.81124 -0.0590948 -1.24503
LeftToes  -11.7915 1.31378e-006 1.14341e-007
86
root  -18.5936 34.1301 31.1544 -167.21 7.59215 -179.067
RightUpLeg  -39.9494 -14.6927 6.1191
RightLeg  40.2929 -4.28713 -3.20247
RightFoot  1.25401 0.00567288 0.0160099
RightToes  -26.0319 -0.117572 -0.223463
Spine  -0.961506 -0.957519 0.32963
Spine1  -1.99294 -1.90954 1.30245
HEad  -58.3047 -2.38956 8.74272
LeftShoulder1  -1.94126e-019 -3.10601e-018 -2.51263e-017
LeftArm  -13.8888 25.1914 -79.2908
LeftForeArm  32.7448 -12.3709 -2.13443
LeftHand  -0.402103 -1.51203 6.92918
RightShoulder  -4.96962e-017 0 -2.36833e-017
RightArm  -27.2973 -22.1362 78.1677
RightForeArm  54.5568 16.8226 1.07625
RightHand  -0.41447 -0.825007 -10.5051
LeftUpLeg  -4.80762 6.5579 -1.3691
LeftLeg  6.94131 15.2561 0.857599
LeftFoot  -5.2689 -0.0670942 -1.29655
LeftToes  -12.483 1.31378e-006 1.14341e-007
